<svg id="Layer_1" data-name="Layer 1" xmlns="http://www.w3.org/2000/svg" viewBox="0 0 37.6 37.01"><defs><style>.cls-1{fill:#1cb7c9;}</style></defs><path class="cls-1" d="M291.43,433.87a10.68,10.68,0,0,1,1,.85,1.87,1.87,0,0,1,0,2.7c-.47.5-1,1-1.46,1.45a1.85,1.85,0,0,1-2.65,0q-4.56-4.53-9.1-9.1a1.85,1.85,0,0,1,0-2.65c.34-.38.72-.73,1.08-1.1,1.13-1.12,1.94-1.18,3.32-.15.67-.71,1.38-1.42,2.05-2.16a10.52,10.52,0,0,1,7.59-3.66v-1.51c-.08-.05-.13-.1-.16-.1a2.43,2.43,0,0,1-2.93-2.87c.1-1.07,0-2.17.17-3.22a3.81,3.81,0,0,1,3.69-3c2.8,0,5.59,0,8.39,0a2.27,2.27,0,1,1-.05,4.54H301v7.69c.9,0,1.8,0,2.7,0a3.37,3.37,0,0,1,3.28,1.68c1.47-1.31,2.9-2.6,4.35-3.87a3,3,0,0,1,4.85,1.35,2.7,2.7,0,0,1-.62,2.8c-2.34,2.38-4.69,4.75-7.09,7.06a6.18,6.18,0,0,1-4.42,1.69l-9.19,0A4.26,4.26,0,0,0,291.43,433.87Zm-1-1.25c1.95-1.62,2.53-1.83,5.12-1.83l8.24,0a5.42,5.42,0,0,0,3.93-1.56q3.27-3.24,6.5-6.5a1.47,1.47,0,0,0,.17-2.16,1.44,1.44,0,0,0-2.2,0q-2.31,2-4.57,4.06a1.83,1.83,0,0,0-.48.79,2.76,2.76,0,0,1-2.5,2.17c-1.93.13-3.87.08-5.8.07-.44,0-.8-.32-.68-.77.08-.28.42-.52.69-.69s.43,0,.65,0c1.5,0,3,0,4.49,0a1.56,1.56,0,1,0,0-3.09c-1.33,0-2.65,0-4,0a4.93,4.93,0,0,1-2.52-.59,8.57,8.57,0,0,0-5.85-.74c-3.14.65-4.89,3.12-7,5.09Zm9-11.14v-.78c0-2.42,0-4.85,0-7.27,0-.85.18-1,1-1h1.84c.56,0,1-.19,1-.82s-.43-.79-1-.79c-2.67,0-5.34,0-8,0a2.32,2.32,0,0,0-2.4,1.87,19.54,19.54,0,0,0-.08,3.59,1,1,0,0,0,.77.65c.26,0,.63-.41.74-.71a3.42,3.42,0,0,0,0-1.24c0-.55.11-1,.74-1s.74.49.74,1c0,1.68,0,3.37,0,5.11l1.6.3c0-1.37,0-2.67,0-4,0-.52.1-1,.74-.94s.74.44.74,1v3.67C297.88,421.05,298.3,421.45,299.44,421.48ZM291.6,436c-.2-.22-.36-.43-.55-.62l-7.68-7.68c-1.53-1.52-1.13-1.48-2.65,0-.68.66-.67.68,0,1.33,2.51,2.51,5,5,7.54,7.53,1.74,1.72,1.11,1.77,3.05-.13A2.79,2.79,0,0,0,291.6,436Z" transform="translate(-278.72 -402.41)"/><path class="cls-1" d="M294.07,405.44a3.11,3.11,0,0,1,3.06-3,3.06,3.06,0,0,1-.05,6.11A3.1,3.1,0,0,1,294.07,405.44Zm3.05,1.56a1.54,1.54,0,0,0,0-3.07,1.54,1.54,0,1,0,0,3.07Z" transform="translate(-278.72 -402.41)"/></svg>